HIERARCHY
ROOT hip
{
	OFFSET 0.000000 0.000000 0.000000 
	CHANNELS 6 Xposition Yposition Zposition Xrotation Zrotation Yrotation
	JOINT abdomen
	{
		OFFSET 0.000000 3.402643 0.000000 
		CHANNELS 3 Xrotation Zrotation Yrotation
		JOINT chest
		{
			OFFSET 0.000000 8.438565 -0.680529 
			CHANNELS 3 Xrotation Zrotation Yrotation
			JOINT neck
			{
				OFFSET 0.000000 10.207942 -0.272212 
				CHANNELS 3 Xrotation Zrotation Yrotation
				JOINT head
				{
					OFFSET 0.000000 3.130431 0.000000 
					CHANNELS 3 Xrotation Zrotation Yrotation
					End Site
					{
						OFFSET 0.000000 3.130435 0.000000 
					}
				}
			}
			JOINT lCollar
			{
				OFFSET 3.470700 6.669187 -0.816635 
				CHANNELS 3 Yrotation Zrotation Xrotation
				JOINT lShldr
				{
					OFFSET 3.198488 0.000000 0.000000 
					CHANNELS 3 Zrotation Yrotation Xrotation
					JOINT lForeArm
					{
						OFFSET 10.139888 0.000000 0.000000 
						CHANNELS 3 Yrotation Zrotation Xrotation
						JOINT lHand
						{
							OFFSET 8.370511 0.000000 0.000000 
							CHANNELS 3 Zrotation Yrotation Xrotation
							End Site
							{
								OFFSET 4.083176 0.000000 0.000000 
							}
						}
					}
				}
			}
			JOINT rCollar
			{
				OFFSET -3.470700 6.669187 -0.816635 
				CHANNELS 3 Yrotation Zrotation Xrotation
				JOINT rShldr
				{
					OFFSET -3.198488 0.000000 0.000000 
					CHANNELS 3 Zrotation Yrotation Xrotation
					JOINT rForeArm
					{
						OFFSET -10.139888 0.000000 0.000000 
						CHANNELS 3 Yrotation Zrotation Xrotation
						JOINT rHand
						{
							OFFSET -8.370511 0.000000 0.000000 
							CHANNELS 3 Zrotation Yrotation Xrotation
							End Site
							{
								OFFSET -4.083176 0.000000 0.000000 
							}
						}
					}
				}
			}
		}
	}
	JOINT lThigh
	{
		OFFSET 5.308129 -1.633274 1.361059 
		CHANNELS 3 Xrotation Zrotation Yrotation
		JOINT lShin
		{
			OFFSET -2.041588 -20.007561 0.000000 
			CHANNELS 3 Xrotation Zrotation Yrotation
			JOINT lFoot
			{
				OFFSET 0.000000 -19.190928 -1.224953 
				CHANNELS 3 Xrotation Yrotation Zrotation
				End Site
				{
					OFFSET 0.000000 -2.449906 4.627600 
				}
			}
		}
	}
	JOINT rThigh
	{
		OFFSET -5.308129 -1.633274 1.361059 
		CHANNELS 3 Xrotation Zrotation Yrotation
		JOINT rShin
		{
			OFFSET 2.041588 -20.007561 0.000000 
			CHANNELS 3 Xrotation Zrotation Yrotation
			JOINT rFoot
			{
				OFFSET 0.000000 -19.190928 -1.224953 
				CHANNELS 3 Xrotation Yrotation Zrotation
				End Site
				{
					OFFSET 0.000000 -2.449906 4.627600 
				}
			}
		}
	}
}
MOTION
Frames: 18
Frame Time: 0.016667
0.987724 48.679192 -2.865490 -0.312500 -0.029297 2.001953 0.000000 0.000000 0.000000 -0.097656 -0.175781 -3.144531 16.074219 0.546875 1.679687 -15.996095 -0.917969 0.117188 1.992188 -2.001953 0.000341 -76.435547 11.904298 -10.058593 -13.750000 -1.494141 10.713145 -12.626953 2.968750 0.039568 -2.001953 1.992188 0.000000 74.443359 9.804688 9.375000 20.097658 0.419922 14.980399 18.359375 5.849609 -9.375000 -21.162683 -1.259380 -1.417634 16.131519 -3.085776 0.435268 5.971379 -0.205260 3.713363 7.208796 -5.629271 -1.909611 31.870632 9.675561 5.095686 -25.784494 1.295319 -3.289184 
1.187152 49.148418 -2.956361 -0.625000 -0.039063 4.003900 0.000000 0.000000 0.000000 -0.146484 -0.351563 -6.250000 16.181641 0.205078 3.232422 -15.996095 -0.917969 0.117188 1.992188 -2.001953 0.000341 -75.937500 9.970703 -9.431902 -14.003907 -1.523438 10.712890 -13.886719 4.326172 0.283203 -2.001953 1.992188 0.000000 74.902344 7.529296 9.638674 19.658203 0.429688 14.990235 16.738281 8.037110 -9.588477 -19.163355 -1.591252 -2.532973 20.050133 -3.699766 0.242656 0.870580 -0.891690 4.345952 10.199666 -5.573139 -3.587471 31.834047 9.416715 5.138235 -15.020531 1.534601 -0.955415 
0.858048 49.617458 -2.954185 -0.947266 -0.039063 6.005859 0.000000 0.000000 0.000000 -0.205078 -0.507813 -9.365316 16.269531 -0.146484 4.794922 -15.996095 -0.917969 0.117188 1.992188 -2.001953 0.000341 -75.371094 7.656250 -8.808595 -14.677733 -1.572266 10.703392 -14.736328 4.042969 0.977253 -2.001953 1.992188 0.000000 75.292969 5.214844 9.746095 19.238283 0.429688 14.990160 15.869141 7.343750 -10.468750 -16.413258 -1.132572 -3.756994 22.513489 -4.051805 0.078420 -3.618006 -1.813713 4.140891 4.372976 -7.057574 -3.934953 45.690979 13.337985 7.917565 -3.541457 0.685627 -1.966602 
0.528947 50.086422 -2.952010 -1.250000 -0.029297 8.007812 0.000000 0.000000 0.000000 -0.244141 -0.683594 -12.490233 16.347654 -0.498047 6.347656 -15.996095 -0.917969 0.117188 1.992188 -2.001953 0.000341 -74.726563 5.351563 -8.192449 -15.351563 -1.621094 10.683870 -15.576173 3.759766 1.669922 -2.001953 1.992188 0.000000 75.498047 2.773438 9.736802 18.427734 0.419922 14.990236 14.980470 6.669922 -11.356286 -12.827835 -0.526833 -4.948800 23.077547 -4.061046 0.033618 -7.147627 -2.786902 3.639831 -1.835533 -7.690489 -5.128923 45.689232 13.543930 7.845607 -5.723001 -0.907756 -3.409769 
0.199846 50.555122 -2.949823 -1.552734 0.000000 10.009766 0.000000 0.000000 0.000000 -0.273438 -0.859375 -15.595702 16.611326 -0.625000 7.314454 -15.996095 -0.917969 0.117188 1.992188 -2.001953 0.000341 -73.994141 3.076172 -7.597657 -16.035154 -1.689453 10.664351 -16.425779 3.496094 2.373644 -2.001953 1.992188 0.000000 75.556641 0.292969 9.697266 17.607422 0.419922 14.990236 14.091797 5.986328 -12.225544 -8.579813 0.283470 -6.050946 21.916441 -3.739045 0.042193 -9.661737 -3.724932 2.790938 -8.221043 -8.181562 -6.499756 43.007141 13.134519 7.174309 -10.804717 -1.983589 -5.414548 
-0.129254 50.084126 -2.947648 -0.957031 -0.019531 12.011715 0.000000 0.000000 0.000000 -0.292969 -1.025392 -18.720863 16.884764 -0.771484 8.281249 -15.996095 -0.917969 0.117188 1.992188 -2.001953 0.000341 -73.193359 0.820313 -7.011580 -16.718750 -1.738281 10.644531 -17.275391 3.232422 3.076172 -2.001953 1.992188 0.000000 75.439453 -2.138672 9.736328 16.796875 0.410156 14.990233 13.222656 5.283204 -13.085037 -8.218905 1.376452 -7.216536 27.376995 -4.516972 -0.350061 -15.667698 -4.784015 2.438262 -13.140967 -8.005130 -8.074387 36.671741 11.664288 5.787292 -13.553139 -2.693825 -6.858853 
-0.458355 49.613407 -2.945472 -0.351563 -0.048828 14.023437 0.000000 0.000000 0.000000 -0.312500 -1.201172 -21.826174 17.167969 -0.927734 9.238123 -15.996095 -0.917969 0.117188 1.992188 -2.001953 0.000341 -72.294922 -1.416016 -6.425782 -17.392578 -1.787196 10.624773 -18.125000 2.988281 3.779806 -2.001953 1.992188 0.000000 75.175781 -4.462891 9.912109 16.005859 0.410156 15.009766 12.431640 4.521484 -13.925781 -7.041371 2.595876 -8.393435 30.754683 -4.922104 -0.653410 -20.297522 -5.843205 1.687321 -16.558905 -7.165877 -10.059377 26.273153 8.777411 3.997510 -14.476499 -2.798514 -7.453065 
-0.787456 49.142860 -2.943275 0.263672 -0.097656 16.015623 0.000000 0.000000 0.000000 -0.312500 -1.376953 -24.941404 17.421877 -1.093750 10.185361 -15.996095 -0.917969 0.117188 1.992188 -2.001953 0.000341 -71.308594 -3.613281 -5.859375 -18.066406 -1.845703 10.615548 -18.984375 2.744141 4.501954 -2.001953 1.992188 0.000000 74.755859 -6.542969 10.321154 15.263673 0.410156 15.009694 11.748047 3.681641 -14.707033 -5.100139 3.990113 -9.451720 32.284145 -5.015648 -0.830227 -23.628923 -6.866026 0.668286 -20.593948 -6.708138 -12.105592 17.390284 5.936556 2.959754 -16.194189 -2.288472 -7.902563 
-1.116549 48.672489 -2.941099 0.869141 -0.175781 18.017578 0.000000 0.000000 0.000000 -0.302734 -1.542969 -28.066406 17.695311 -1.289063 11.142578 -15.996095 -0.917969 0.117188 1.992188 -2.001953 0.000341 -70.253906 -5.771485 -5.293951 -18.750000 -1.894531 10.596025 -19.843750 2.519531 5.214844 -2.001953 1.992188 0.000000 74.179688 -8.330077 11.083983 14.560548 0.400391 15.009681 11.210938 2.753906 -15.458514 -2.519018 5.614401 -10.418242 31.773073 -4.825132 -0.832253 -25.283119 -7.871156 -0.642687 -23.584263 -6.592217 -11.712775 13.769185 4.469307 2.705839 -11.080639 -4.900216 -7.145987 
-1.445659 48.202293 -2.938924 1.474609 -0.263672 20.019531 0.000000 0.000000 0.000000 -0.292969 -1.728516 -31.181641 17.978514 -1.494141 12.089844 -15.996095 -0.917969 0.117188 1.992188 -2.001953 0.000341 -69.121094 -7.890625 -4.737669 -19.433594 -1.943359 10.566406 -20.703127 2.304688 5.927735 -2.001953 1.992188 0.000000 73.486328 -9.746094 12.236328 13.935548 0.400391 15.009681 10.830078 1.708984 -16.142576 1.240206 7.440674 -11.102997 28.851658 -4.249550 -0.620814 -25.349140 -8.891552 -2.182025 -22.814512 -5.475710 -9.052956 9.365223 2.831932 2.447918 4.302688 -10.611197 -2.740024 
-1.563102 48.673370 -2.948870 0.654297 -0.214844 18.017544 0.000000 0.000000 0.000000 -0.302734 -1.542969 -28.066406 18.017580 -0.947266 10.751793 -15.996095 -0.917969 0.117188 1.992188 -2.001953 0.000341 -69.824219 -6.425782 -5.098750 -18.681641 -1.894531 10.585938 -19.316404 -0.830078 6.103361 -2.001953 1.992188 0.000000 73.769531 -7.929688 12.645138 14.150391 0.390609 15.010282 12.890625 -1.416016 -16.435547 4.453062 7.870652 -9.510280 28.038973 -3.858401 -0.621787 -18.728727 -9.129939 -2.055275 -21.990532 -5.263519 -7.939145 16.566345 5.840869 2.795217 -2.501275 -9.903598 -5.317964 
-1.680545 49.144802 -2.958825 -0.185547 -0.185547 16.035154 0.000000 0.000000 0.000000 -0.312500 -1.376953 -24.941404 18.027344 -0.341797 9.394531 -15.996095 -0.917969 0.117188 1.992188 -2.001953 0.000341 -70.507813 -4.619141 -5.450005 -18.046875 -1.845703 10.605783 -18.164063 -2.275391 5.800781 -2.001953 1.992188 0.000000 74.169922 -4.833984 14.345702 14.755858 0.410156 15.009766 14.433594 -2.363281 -15.986327 6.423481 8.346153 -7.313959 28.935633 -3.849376 -0.726560 -9.142667 -10.961906 -1.705377 -19.515980 -4.197643 -7.218694 20.155605 7.069943 3.168101 -7.178629 -8.890051 -6.808461 
-1.371948 49.616493 -2.935794 -1.005859 -0.185547 14.033172 0.000000 0.000000 0.000000 -0.322266 -1.210939 -21.826359 17.998047 0.195313 8.066435 -15.996095 -0.917969 0.117188 1.992188 -2.001953 0.000341 -71.162109 -2.441406 -5.791431 -17.529297 -1.796875 10.615541 -17.255857 -2.041015 5.087544 -2.001953 1.992188 0.000000 74.501953 -2.236328 15.419539 15.322266 0.410156 15.009694 15.322266 -2.236328 -15.342177 2.695295 8.629634 -7.716261 39.894440 -5.821675 -1.653548 0.408683 -11.433529 0.433505 -16.217371 -3.485527 -6.526119 22.415150 7.732198 3.430653 -11.133939 -7.630321 -7.311152 
-1.063341 50.088722 -2.912773 -1.835938 -0.214844 12.031258 0.000000 0.000000 0.000000 -0.302734 -1.025391 -18.720707 17.871094 0.576172 6.816504 -15.996095 -0.917969 0.117188 1.992188 -2.001953 0.000341 -71.708984 -0.224609 -6.132851 -17.021484 -1.767578 10.644833 -16.347654 -1.787109 4.374696 -2.001953 1.992188 0.000000 74.765625 0.380859 16.503973 15.898437 0.400391 14.999984 16.171877 -1.943359 -14.648767 -4.274424 8.072258 -8.039952 51.882015 -7.464493 -3.026071 5.268053 -10.398573 2.461722 -12.184223 -2.723585 -5.857150 21.908300 7.537130 3.380463 -14.108727 -6.343826 -7.376844 
-0.754732 50.561291 -2.889753 -2.656250 -0.283203 10.039024 0.000000 0.000000 0.000000 -0.283203 -0.859376 -15.595837 17.783203 0.830078 5.586080 -15.996095 -0.917969 0.117188 1.992188 -2.001953 0.000341 -72.158203 2.021484 -6.484031 -16.494141 -1.718750 10.654590 -15.439453 -1.533203 3.652084 -2.001953 1.992188 0.000000 75.009766 3.017578 17.617704 16.484373 0.410156 15.000002 16.953125 -1.542969 -13.906513 -10.741578 6.220425 -5.545297 48.950195 -7.317377 -2.560192 0.901830 -8.590045 3.640551 -7.341140 -1.854789 -5.217655 21.755640 7.362457 3.411299 -15.968977 -5.100346 -6.843718 
-0.446125 50.091717 -2.866722 -2.119141 -0.263672 8.017578 0.000000 0.000000 0.000000 -0.253906 -0.683594 -12.490232 17.812500 1.035156 4.296862 -15.996095 -0.917969 0.117188 1.992188 -2.001953 0.000341 -72.500000 4.296875 -6.854737 -15.976563 -1.679688 10.664062 -14.541017 -1.259766 2.949219 -2.001953 1.992188 0.000000 75.205078 5.654297 18.740234 17.080076 0.410156 15.000000 17.714846 -1.064453 -13.134948 -16.497633 4.178110 -2.306096 40.433937 -6.447076 -1.478520 -5.618358 -7.641359 4.574567 -6.638998 -2.782673 -4.228613 27.269266 8.962842 4.158031 -21.655386 -3.460537 -7.551447 
-0.137518 49.621700 -2.843702 -1.591797 -0.224609 6.015587 0.000000 0.000000 0.000000 -0.214844 -0.507813 -9.365315 17.832031 1.171875 3.046875 -15.996095 -0.917969 0.117188 1.992188 -2.001953 0.000341 -72.753906 6.591797 -7.225442 -15.468751 -1.630859 10.683594 -13.632812 -0.976563 2.245928 -2.001953 1.992188 0.000000 75.341797 8.310547 19.892578 17.675781 0.410156 14.990165 18.466797 -0.556641 -12.353495 -19.504248 2.488673 0.626580 29.376299 -4.956169 -0.445818 -9.094785 -7.708717 4.766469 -4.994812 -3.511556 -3.258087 30.668932 9.881367 4.749323 -26.165140 -1.928906 -7.668766 
0.171088 49.151421 -2.820671 -1.064453 -0.166016 4.003878 0.000000 0.000000 0.000000 -0.156250 -0.351562 -6.250001 17.685547 1.240234 1.884977 -15.996095 -0.917969 0.117188 1.992188 -2.001953 0.000341 -72.900391 8.906251 -7.607422 -14.951171 -1.591797 10.693631 -12.744141 -0.683594 1.552734 -2.001953 1.992188 0.000000 75.449219 10.957031 21.076073 18.281250 0.419922 14.999928 19.228516 -0.058594 -11.552745 -21.512579 0.976760 3.149377 17.877178 -3.215541 0.330608 -10.844480 -7.965551 4.132887 -2.644699 -4.176411 -2.260337 32.516293 10.262564 5.116398 -29.893064 -0.589024 -7.311275 
